<?xml version="1.0" encoding="UTF-8"?>
<!-- Created with Inkscape (http://www.inkscape.org/) -->
<svg width="147.62" height="314.7" version="1.1" xmlns="http://www.w3.org/2000/svg" xmlns:cc="http://creativecommons.org/ns#" xmlns:dc="http://purl.org/dc/elements/1.1/" xmlns:rdf="http://www.w3.org/1999/02/22-rdf-syntax-ns#">
 <defs>
  <clipPath id="clipPath4751-3-6">
   <path d="m382.04 578.89c2.8013-0.94981 3.1822-2.8887 1.8898-3.7568-0.3231-0.21704-1.2449-0.964-1.5046-1.3129-1.4418 0.39851-3.6312 0.63228-4.6722 1.3073-0.55562 0.36027-0.16985 2.2891 0.53698 2.7356" fill="#ffffae" fill-opacity=".27461"/>
  </clipPath>
  <clipPath id="clipPath4874-3-5">
   <path d="m374.46 612.85c0.83105 0.6954 2.1341 1.6535 3.214 2.2012 1.0799 0.54767 1.9367 0.71644 2.5696-0.10377 0.94862 1.0423 1.8944 1.4744 3.0891 1.4755 1.1948 1e-3 3.4593-0.0501 4.5201-0.44788l-1.3839 4.5536-11.473-0.13392z" fill="#93c79b" fill-opacity=".37824"/>
  </clipPath>
  <clipPath id="clipPath4515-5-97">
   <path d="m384.15 657.85c2.8013-0.94981 2.6867-2.7101 1.3943-3.5782-0.3231-0.21704-1.553-0.94614-1.8126-1.295-1.5757 0.33154-2.5062 0.32424-3.8597 0.95459-0.60029 0.27957-1.0047 0.8382-1.0791 1.508" fill="#ffffae" fill-opacity=".27461"/>
  </clipPath>
  <clipPath id="clipPath4646-9-4">
   <path d="m172.02 513.71c-11.322 3.8658-24.173 11.782-28.627 28.504 12.003-11.604 23.837-18.081 34.533-19.709 10.851-1.6512 23.485-7.4536 31.205-3.9485-9.8046-11.695-27.088-8.2681-37.111-4.8461z" fill="#27b43f"/>
  </clipPath>
  <clipPath id="clipPath4893-9-5">
   <path d="m219.31 740.54c2.0398 0.73214 5.5645 2.5491 7.9696 2.8322 2.4051 0.28313 3.8723-0.14622 4.3179-1.769 2.5882 0.6835 4.5902 0.34533 6.8338-0.47688 2.2436-0.82234 6.4594-2.4805 8.1764-3.959l0.54332 9.5029-21.631 7.6635z" fill="#93c79b" fill-opacity=".37824"/>
  </clipPath>
  <clipPath id="clipPath4741-5-6">
   <path d="m221.38 490.9c-24.854 2.2792-69.728 20.788-80.115 47.774 29.095-22.234 58.199-31.382 78.161-35.376s55.597-7.337 67.769 4.3306c-12.503-20.426-47.779-18.382-65.815-16.728z" fill="#27b43f"/>
  </clipPath>
 </defs>
 <metadata>
  <rdf:RDF>
   <cc:Work rdf:about="">
    <dc:format>image/svg+xml</dc:format>
    <dc:type rdf:resource="http://purl.org/dc/dcmitype/StillImage"/>
    <dc:title/>
   </cc:Work>
  </rdf:RDF>
 </metadata>
 <g transform="translate(180.57 -390.65)">
  <g transform="matrix(.5 0 0 .5 -53.382 274)">
   <g>
    <path d="m-174.27 660.3c-24.854 2.2792-69.728 20.788-80.115 47.774 29.095-22.234 58.199-31.382 78.161-35.376s55.597-7.337 67.769 4.3306c-12.503-20.426-47.779-18.382-65.815-16.728z" fill="#27b43f"/>
    <path d="m-61.918 336.51c-8.4953 1.0756-11.455 8.0715-13.138 12.083 5.6094 1.4266 12.758-5.8552 13.138-12.083z" fill="#e7d168"/>
    <path d="m-77.447 351.49c-1.8704-4.7203 1.0754-11.775 6.0644-15.141 2.3016 5.0776-1.5505 12.987-6.0644 15.141z" fill="#d8ba51"/>
    <path d="m-77.754 352.07c4.8646-5.4008 9.1219-8.3056 16.859-7.8395-0.60216 4.9807-8.2441 9.2571-16.859 7.8395z" fill="#d4bd54"/>
    <path d="m-78.615 340.9c-3.6876 4.4298-5.096 11.695-0.05196 14.366 2.8709-3.4218 3.6711-10.081 0.05196-14.366z" fill="#ceb350"/>
    <path d="m-80.39 354.34c3.6394-3.8667 9.7864-4.5127 15.604-2.1727-5.2291 4.2923-10.272 4.2094-15.604 2.1727z" fill="#c8ac47"/>
    <path d="m-120.08 632.03 0.93126 7.5933 3.3668 14.828 5.5159 0.1432 4.7995-24.857-8.3096-2.0773z" fill="#008630"/>
    <path d="m-108.24 653.54c0.0234-7.1131 0.1436-13.578 0.3215-19.615-2.2502-3.0351-9.0732-2.6899-10.754 0.81036 0.14446 5.9873 0.23934 12.103 0.26774 18.363z" fill="#06b132"/>
    <path d="m-115.56 642.65c0.0617 5.146 0.15343 10.497 0.28246 16.069h2.2981c-0.17298-5.5203-0.3099-10.83-0.41764-15.945-0.41898-1.7975-1.5662-1.9304-2.1629-0.12457z" fill="#0cb738"/>
    <path d="m-107.12 688.5c-0.20112-4.5043-0.36777-9.3127-0.44575-14.353-0.0421-2.722 2.3856-1.4496 2.6114-8.0038 0.1837-5.3307-2.5931-5.4014-2.5182-7.9827 0.24256-8.3531 0.82441-17.08 1.9422-25.918-1.4251 0-2.0082 4.149-3.4416 4.2981-0.57308 4.6861-1.8869 9.5844-4.5846 13.412-2.749-3.5595-5.0858-7.4035-5.7395-16.691l-1.9005-1.2184c0.45761 7.8462 0.95236 16.669 1.2565 25.606 0.0782 2.2983-2.6862 3.0134-2.4587 6.9031 0.32159 5.4988 2.7389 4.9861 2.7484 7.4479 0.0182 4.728-0.0535 9.3558-0.25054 13.751l6.2727-1.8604z" fill="#1ea834"/>
    <path d="m-111.13 642.31c4.1065-1.2 11.386-6.0856 18.911-21.361 24.913-50.576 63.519-87.008 102.78-101.85-45.874 6.1001-84.551 44.019-115.77 75.971-9.1782 9.3926-16.41 24.791-17.534 30.803-1.1263 6.0202-0.63826 10.89 1.3324 13.187 2.6648 3.1065 5.239 2.4276 3.7503-0.41048-1.246-2.3754-1.7563-5.0136-0.25922-6.4512 2.253-2.1635 5.4274-1.9256 7.6472-1.1665 3.1507 1.0775 4.0304 4.0926-0.88378 7.6104-3.2339 2.315-1.0794 3.9884 0.0293 3.6645z" fill="#2fc644"/>
    <path d="m-114.65 632.65c17.886-46.353 77.486-103.56 125.21-113.55-48.122 11.634-103.26 64.689-123.21 114.05" fill="#3cd151"/>
    <path d="m-118.87 789.46 1.1607 9.4643 4.1964 18.482 6.875 0.1786 5.9821-30.982-10.357-2.5893z" fill="#137721"/>
    <path d="m-105.83 715.53c3.5588-7.9281 5.3685-12.46 3.8439-23.454-0.91056-6.566-3.9644-12.142-6.4641-15.056-10.093-10.088-40.339-14.194-63.543-7.8201 14.871 0.0784 34.385 12.1 42.597 22.78 6.0372 7.852 5.788 17.45 8.5666 20.514 2.3485 11.209 8.6423 8.3338 15 3.0357z" fill="#248632"/>
    <path d="m-116.55 824.64c-0.45696-11.385-0.85546-22.475-1.2229-33.146 2.7899-3.5716 11.933-4.9973 13.413 0.6937 0.47078 11.13 0.8455 21.471 0.8455 30.131" fill="#178e2a"/>
    <path d="m-101.96 859.02c0-21.72-1.9985-45.163 2.5571-69.288-1.7762 0-4.017 5.3945-5.8036 5.5804-0.71428 5.8407-2.1732 11.723-5.5357 16.494-3.4264-4.4365-6.4059-10.009-7.2206-21.585l-1.6341-0.0696c1.1824 20.273 0.60566 44.182-0.34308 65.347 7e-3 7.4796 12.467 9.9413 17.98 3.5219z" fill="#1e7f2c"/>
    <path d="m-110.27 798.2c9.1246 3.6235 15.782-8.6628 20.557-27.683 5.4756-21.812 21.179-48.14 36.629-57.265 21.407-12.643 39.448-17.055 93.94-3.9255-16.917-10.914-75.429-18.061-102.32-6.436-24.986 10.8-36.308 21.655-45.815 36.365-10.348 16.011-15.33 30.205-15.65 41.373-0.32254 11.264 1.0488 15.772 5.0788 15.971 3.3543 0.166-3.8583-2.9105 0.90106-6.8167 3.0094-2.4699 6.7647-2.4001 9.5315-1.454 3.9271 1.343 4.605 4.9013 2.4596 6.5921-2.1469 1.692-6.6458 2.7472-5.3078 3.2785z" fill="#289b38"/>
   </g>
   <path d="m-117.96 785.82c-0.25454 1.7907-0.45314 4.0878 0.1942 5.6781 0.32606-1.2823 0.75532-4.5386-0.1942-5.6781z" fill="#93c79b" fill-opacity=".37824"/>
   <g>
    <path d="m-143.76 662.03c18.204 8.0606 26.558 26.241 29.894 56.262l1.591 0.17678c-1.9541-31.358-15.287-51.552-31.485-56.438z" fill="#28923a"/>
    <path d="m-117.1 394.88c1.525 14.198 1.1461 40.265 1.3709 54.988 0.4498 29.455-3.2876 117.42-2.0944 143.67l9.0782-5.533c1.4863-27.646-0.79572-140.58-0.1466-169.59 0.21944-9.8064 0.69804-17.516 3.4352-21.868 6.1287-9.746 8.1754-15.804 12.301-26.305 2.0095-5.1141 11.334-14.454 15.145-16.166 0.50446-1.9034-0.76778-2.5229-1.4271-2.4865-6.0881 3.5304-9.177 7.5641-10.511 6.9733 1.3257-6.4152 3.5512-13.194 5.5515-16.086 4.0976-5.9239 8.3277-7.7353 10.914-13.406l-2.1253-0.31968c-2.5936 4.6819-5.1562 5.2407-10.156 9.9233 1.71-6.4455 1.4231-10.131 4.0603-15.082l-2.2896-1.2006c-3.6474 7.7101-7.1528 27.82-10.236 38.063-4.761 15.818-11.404 25.195-14.975 30.655-0.55634-7.866-0.24574-12.366 0.1786-25.76 0.1544-4.8745 3.2291-20.859 3.9405-30.434l-2.3095-1.1902c-0.68424 2.9383-0.93128 5.0431-1.7501 9.8621 0.1194-5.8571 0.21906-17.471 0.2417-21.002 0.103-16.079-0.6256-25.353 12.347-42.236l-1.1198-2.2428c-4.3159 4.0133-9.1561 12.82-11.146 18.125-1.607-12.481-1.212-29.835-1.212-39.59l-2.1336-0.1598c-1.1222 31.298 0.26122 45.772-0.55316 65.39-0.2006-6.2061-4.7156-15.726-9.4864-24.447l-1.8476 3.1672c5.0297 8.5482 9.2466 18.953 9.9527 33.997 0.70612 15.043-0.34132 37.441-0.24928 43.456-1.9661-1.6138-2.2387-14.018-8.8093-27.838-2.7976-5.8843-5.447-12.555-4.0094-21.645l-2.5421 0.1042c-0.28586 3.6508-0.7487 6.7251 0.1044 10.756-1.8648-4.4952-3.1267-6.491-5.6006-9.4597l-2.0004 1.9518c5.4324 5.1508 12.393 23.477 14.261 29.167 2.3412 7.1327 4.716 23.263 5.8475 33.798z" fill="#b4d554"/>
    <path d="m-76.953 295.78c-6.904 6.024-5.7038 15.278-5.0025 20.576 5.7223-1.6683 8.0596-13.629 5.0025-20.576z" fill="#e7d168"/>
    <path d="m-82.482 320.86c-4.2195-4.0308-5.4645-13.341-2.8987-19.833 4.7943 4.1702 5.7051 14.922 2.8987 19.833z" fill="#d4b854"/>
    <path d="m-82.437 321.67c1.3477-8.6204 3.5192-14.196 10.595-18.12 2.1815 5.7272-2.2272 14.722-10.595 18.12z" fill="#dcc457"/>
    <path d="m-89.283 310.08c-0.83876 6.8976 1.8762 15.555 7.7777 15.555 0.66761-5.3409-2.2534-12.996-7.7777-15.555z" fill="#c2a84d"/>
    <path d="m-83.528 325.62c1.103-6.2614 6.1705-10.477 12.574-11.278-2.2727 7.6311-6.7637 10.427-12.574 11.278z" fill="#d0b555"/>
    <path d="m-138.79 279.02c8.9934 0.91302 10.858 9.1336 11.911 13.848-6.3477 1.9475-12.694-6.4316-11.911-13.848z" fill="#edd258"/>
    <path d="m-124.85 296.23c2.93-5.7154 1.0921-14.007-3.6656-17.806-3.4654 6.1606-0.80969 15.432 3.6656 17.806z" fill="#e1c64d"/>
    <path d="m-124.63 296.91c-4.2328-6.2337-8.2864-9.5149-16.754-8.6209-0.30241 5.9183 7.1535 10.689 16.754 8.6209z" fill="#d9bc56"/>
    <path d="m-121.55 283.53c3.1444 5.1262 3.2771 13.736-2.6969 17.144-2.4531-3.9588-2.0434-11.872 2.6969-17.144z" fill="#cfb453"/>
    <path d="m-122.21 299.5c-3.2001-4.4562-9.7328-4.9589-16.481-1.9122 4.84 4.8948 10.317 4.5758 16.481 1.9122z" fill="#cbb04d"/>
    <path d="m-82.022 263.33c-6.9557 1.4966-10.434 8.0896-12.606 12.976 7.5874-1.1908 11.857-6.9897 12.606-12.976z" fill="#edd258"/>
    <path d="m-92.218 263.94c-5.5209 3.6945-5.9321 8.2232-5.9321 14.645 4.9082-0.72777 9.455-10.417 5.9321-14.645z" fill="#e1c64d"/>
    <path d="m-98.773 279.32c3.9859-3.9925 10.093-5.9449 14.645-5.3759-1.8e-5 2.0201-6.2977 9.7996-14.645 5.3759z" fill="#dcc457"/>
    <path d="m-111.81 254.71c4.0702-3.9314 3.5143-13.254 2.5559-21.405-7.0327 7.6105-6.0569 18.488-2.5559 21.405z" fill="#edd258"/>
    <path d="m-109.74 257.74c0.74558-7.5795-4.7426-13.344-9.5791-19.488-1.3488 9.7058 2.6372 19.488 9.5791 19.488z" fill="#dcc457"/>
    <path d="m-153.18 306.72c-0.30568 9.6775 7.6109 15.713 12.153 19.158 2.7911-5.5302-4.6786-16.24-12.153-19.158z" fill="#edd258"/>
    <path d="m-137.96 329.65c-6.074 0.13612-14.065-5.9083-17.198-12.692 6.5886-0.4616 15.443 6.9126 17.198 12.692z" fill="#d9bc56"/>
    <path d="m-137.32 330.22c-5.623-7.4668-8.3366-13.269-6.3063-21.501 5.9213 2.6594 9.6558 12.696 6.3063 21.501z" fill="#dcc457"/>
    <path d="m-151.03 326.66c4.6694 5.7953 13.207 10.251 17.399 5.8371-3.6027-4.501-11.521-8.0513-17.399-5.8371z" fill="#bca13f"/>
    <path d="m-135.07 334c-3.9961-5.5163-3.6146-12.465 0.32274-17.855 4.2107 7.4175 3.1552 12.872-0.32274 17.855z" fill="#c3a848"/>
    <path d="m-102.27 307.97c4.7824 7.722 0.36201 15.481-2.1827 19.917-5.1221-3.4632-3.2846-14.842 2.1827-19.917z" fill="#edd258"/>
    <path d="m-105.5 332.05c5.6098-2.0942 10.094-9.8867 9.7988-16.514-6.2312 2.0175-10.885 11.2-9.7988 16.514z" fill="#e1c64d"/>
    <path d="m-105.83 332.75c1.6601-8.0844 1.4383-13.765-4.2464-19.692-4.1695 4.3014-2.9093 13.781 4.2464 19.692z" fill="#d9bc56"/>
    <path d="m-94.966 324.89c-1.5671 6.3854-7.2893 13.09-13.171 11.039 1.1953-4.9506 6.7734-10.698 13.171-11.039z" fill="#cfb453"/>
    <path d="m-106.12 336.62c1.0822-5.9152-2.4998-11.401-8.6031-14.335-0.39345 7.5319 3.1084 11.564 8.6031 14.335z" fill="#cbb04d"/>
    <path d="m-67.266 309.93c1.0195 8.1209-2.9306 13.083-6.5742 16.897-0.93666-7.2709 1.6161-13.943 6.5742-16.897z" fill="#edd258"/>
    <path d="m-64.725 319.95c-0.85566 6.253-4.6318 8.4603-10.158 10.908-0.64254-4.6872 4.4558-9.9216 10.158-10.908z" fill="#d9be46"/>
    <path d="m-75.359 331.7c2.4051-5.1028 2.4123-10.297 1.4691-15.629-3.6037 3.9712-7.4334 9.8157-1.4691 15.629z" fill="#dcc457"/>
    <path d="m-123.99 303.63c4.1046 8.7386 0.36201 15.481-2.1827 19.917-5.1221-3.4632-3.9623-15.52 2.1827-19.917z" fill="#edd258"/>
    <path d="m-126.99 329.41c5.6098-2.0942 9.8683-10.677 9.5729-17.305-6.2312 2.0175-10.659 11.99-9.5729 17.305z" fill="#e1c64d"/>
    <path d="m-127.77 330.22c1.6601-8.0844 1.4383-13.765-4.2464-19.692-4.1695 4.3014-2.9093 13.781 4.2464 19.692z" fill="#cfb453"/>
    <path d="m-124.48 312.71c3.1713 6.6636 1.1082 16.305-4.9442 17.78-1.687-4.8053-2.2741-13 4.9442-17.78z" fill="#d9bc56"/>
   </g>
   <path d="m-118.68 634.74c-0.51582-2.5018-0.102-4.6971 0.47852-6.4815" fill="#f4f4f4" fill-opacity=".37824"/>
   <path transform="matrix(2 0 0 2 -874.76 -520.26)" d="m381.82 581.28c2.0532-0.60001 5.6932-3.0428 9.4555-10.681 12.456-25.288 31.76-43.504 51.39-50.924-22.937 3.05-42.275 22.01-57.887 37.986-4.5891 4.6963-8.2048 12.396-8.7672 15.402-0.56315 3.0101-0.31913 5.445 0.66618 6.5936 1.3324 1.5532 2.6195 1.2138 1.8752-0.20524-0.62299-1.1877-0.87813-2.5068-0.12961-3.2256 1.1265-1.0817 2.7137-0.96281 3.8236-0.58326 1.5754 0.53875 2.0152 2.0463-0.44189 3.8052-1.617 1.1575-0.53968 1.9942 0.0146 1.8322z" clip-path="url(#clipPath4751-3-6)" fill="#ffffae" fill-opacity=".27451"/>
   <path d="m-107.92 633.93c0.94692-32.156 3.5234-52.209 1.7582-93.662-0.85888-20.169-10.16-63.44-36.94-92.929 17.149 38.725 19.753 76.824 20.15 91.057 0.8361 30.027 3.4238 60.949 4.278 96.344z" fill="#06b132"/>
   <path d="m-143.1 447.34c31.842 68.131 26.279 90.098 27.54 195.31l2.1629 0.12457c-2.2255-105.65 3.2565-127.59-29.703-195.43z" fill="#0cb738"/>
   <path transform="matrix(2 0 0 2 -874.76 -520.26)" d="m384.46 617.9c1.7794-3.9641 2.6842-6.23 1.922-11.727-0.45528-3.283-1.9822-6.0708-3.2321-7.5278-5.0464-5.0442-18.755-6.5667-30.357-3.3797 7.4354 0.0392 15.778 5.5195 19.884 10.859 3.0186 3.926 2.894 8.7249 4.2833 10.257 1.1742 5.6043 4.3212 4.1669 7.5 1.5178z" clip-path="url(#clipPath4874-3-5)" fill="#ffffae" fill-opacity=".27461"/>
   <path d="m-112.1 790.51c2.5566-23.623 9.4671-45.171 26.554-64.407 22.692-25.546 65.991-39.21 126.39-16.775-63.899-22.139-102.72-7.6186-125.02 17.3-16.029 17.906-24.003 41.054-25.924 64.381" fill="#2fa942"/>
   <path transform="matrix(2 0 0 2 -874.76 -520.26)" d="m382.24 659.23c4.5623 1.8117 7.891-4.3314 10.278-13.842 2.7378-10.906 10.59-24.07 18.314-28.632 10.703-6.3215 19.724-8.5274 46.97-1.9628-8.4586-5.4572-37.714-9.0306-51.162-3.218-12.493 5.4002-18.154 10.827-22.908 18.183-5.1738 8.0056-7.6651 15.102-7.825 20.686-0.16127 5.632 0.5244 7.8859 2.5394 7.9856 1.6771 0.083-1.9292-1.4552 0.45053-3.4083 1.5047-1.235 3.3824-1.2001 4.7657-0.72698 1.9636 0.6715 2.3025 2.4506 1.2298 3.2961-1.0734 0.84602-3.3229 1.3736-2.6539 1.6393z" clip-path="url(#clipPath4515-5-97)" fill="#ffffae" fill-opacity=".27461"/>
   <path d="m-117.77 791.49c-0.36011-10.459-0.69042-20.516-1.0168-30.059-0.11734-3.4312-3.1193-2.9101-3.3569-9.2046-0.23871-6.3247 2.7677-7.4468 2.6466-10.613-0.40773-10.666-0.83733-20.442-1.3358-29.12 3.6356 4.4049 9.713 5.6856 15 3.0357-0.39537 8.082-0.45779 16.928-0.32665 26.09 0.0476 3.3234 2.9202 3.5017 3.0409 9.5436 0.14097 7.0572-2.6399 6.8885-2.5264 10.077 0.3746 10.52 0.86934 21.044 1.2881 30.944" fill="#178e2a"/>
   <path d="m-104.83 781.3c0.8074 4.2354 1.3806 7.3024 1.3806 10.917-0.1642 1.6613-1.0099 2.3768-1.6703 2.8725 0.32852-4.7645 0.47902-7.5347 0.28964-13.79z" fill="#93c79b" fill-opacity=".37824"/>
   <path d="m-107.5 622.35c0.31634 4.0345 0.5631 7.0971 0.27292 11.158-0.20884 1.5497-0.98458 2.597-1.6449 3.0927 0.59638-4.8314 1.048-9.2015 1.372-14.251z" fill="#f4f4f4" fill-opacity=".37824"/>
   <g>
    <path d="m-147.39 788.97c7.1513 18.642 17.205 36.888 25.841 54.159l5.25-3c-11.616-19.291-14.524-36.164-21.036-54.104z" fill="#28c13c"/>
    <path d="m-125.45 819.64c-0.49623-4.3844-1.5643-5.757-4.8191-11.627-2.1997-3.967-4.5104-7.2575-6.236-8.8263-6.6308-5.2307-22.586-5.7148-31.899 1.7081 6.8039-2.0186 18.829 5.2544 24.72 11.136 4.331 4.3243 7.8483 9.5158 9.7313 11.145 5.008 5.8581 8.8512 1.1469 8.503-3.5355z" fill="#248632"/>
    <path d="m-152.09 719.48c-2.9077 23.976-2.9434 49.563 4.7019 69.493 2.8868 4.386 5.7736 7.3486 8.6603 9.0763 1.772-3.3046 2.0345-7.2737 1.3951-12.021-7.6613-21.108-9.1344-42-14.757-66.548z" fill="#36cf4a"/>
    <path d="m-152.09 719.48c0.66606 35.438 1.3668 54.165 12.807 79.031l1.2892 0.2929c-11.315-24.737-12.74-43.781-14.096-79.324z" fill="#47d75b"/>
    <path d="m-157.07 791.8c11.433 5.898 17.514 12.903 27.509 33.52l1.1822-0.27692c-9.3462-21.923-18.248-29.355-28.691-33.243z" fill="#268d37"/>
    <path d="m-173.62 794.34c-11.322 3.8658-24.173 11.782-28.627 28.504 12.003-11.604 23.837-18.081 34.533-19.709 10.851-1.6512 23.485-7.4536 31.205-3.9485-9.8046-11.695-27.088-8.2681-37.111-4.8461z" fill="#27b43f"/>
    <path transform="translate(-345.63 280.63)" d="m143.39 542.21c8.4842-18.358 25.568-31.967 48.323-32.03l3.0429 0.39124c-27.466 1.2341-38.788 12.099-51.366 31.638z" clip-path="url(#clipPath4646-9-4)" fill="#29c13e"/>
   </g>
   <path transform="translate(-364.29 77.52)" d="m238.84 742.12c-0.49623-4.3844-1.5643-5.757-4.8191-11.627-2.1997-3.967-4.5104-7.2575-6.236-8.8263-6.6308-5.2307-22.586-5.7148-31.899 1.7081 6.8039-2.0186 18.829 5.2544 24.72 11.136 4.331 4.3243 7.8483 9.5158 9.7313 11.145 5.008 5.8581 8.8512 1.1469 8.503-3.5355z" clip-path="url(#clipPath4893-9-5)" fill="#ffffae" fill-opacity=".27451"/>
   <path d="m-125.45 819.64c5.4787 11.264 12.345 20.858 18.897 31.82-2.0427 4.4485-6.8446 5.0523-11.314 3.182-5.4722-11.686-8.5467-20.663-16.087-31.466 4.2382 1.022 7.3168-0.0458 8.503-3.5355z" fill="#288e36"/>
   <path transform="translate(-395.65 169.4)" d="m141.27 538.67c27.93-36.478 79.208-49.52 112.04-49.229l3.75 1.0984c-37.012-0.0918-86.595 12.858-115.79 48.13z" clip-path="url(#clipPath4741-5-6)" fill="#29c13e"/>
  </g>
 </g>
</svg>
